<svg
  width="1440"
  height="720"
  viewBox="0 0 1440 720"
  fill="none"
  xmlns="http://www.w3.org/2000/svg">
  <rect width="1440" height="720" fill="#29282A" />
  <path
    d="M680.972 159.14C680.972 166.34 676.892 170 670.532 170H662.672V148.34H671.282C676.922 148.34 680.972 151.73 680.972 159.14ZM676.952 159.14C676.952 154.64 675.062 151.82 671.342 151.82H666.722V166.4H671.012C675.392 166.4 676.952 163.55 676.952 159.14ZM694.959 164.42L697.869 165.47C696.939 168.5 694.389 170.36 691.029 170.36C686.949 170.36 683.679 167.45 683.679 162.26C683.679 157.73 686.289 154.34 690.909 154.34C695.229 154.34 697.809 157.7 697.809 162.2C697.809 162.5 697.779 162.95 697.779 162.95L696.699 163.01H687.189C687.129 165.56 688.719 167.42 691.029 167.42C692.919 167.42 694.479 166.22 694.959 164.42ZM690.819 157.1C688.809 157.1 687.459 158.48 687.339 160.31H694.149C694.089 158.42 692.649 157.1 690.819 157.1ZM709.654 165.65C709.654 164.9 709.144 164.48 707.974 164.24C706.924 164.03 705.814 163.79 704.704 163.52C702.364 162.98 700.414 161.57 700.414 159.11C700.414 156.17 702.874 154.4 706.414 154.4C709.504 154.4 711.664 155.81 712.714 157.22L710.704 159.41C710.044 158.54 708.574 157.22 706.354 157.22C704.644 157.22 703.744 157.91 703.744 158.96C703.744 159.65 704.314 160.13 705.844 160.46C706.804 160.67 707.974 160.94 709.024 161.15C711.274 161.6 713.074 162.95 713.074 165.44C713.074 168.47 710.284 170.3 706.864 170.3C703.354 170.3 700.474 168.38 699.844 166.43L702.184 164.66C702.814 165.62 704.074 167.39 706.894 167.39C708.724 167.39 709.654 166.64 709.654 165.65ZM716.071 170V154.7H719.551V170H716.071ZM715.981 152.39V148.73H719.641V152.39H715.981ZM730.232 167.27C731.822 167.27 734.192 165.89 734.192 162.74V161.84C734.192 159.38 732.422 157.37 730.142 157.37C727.652 157.37 726.182 159.23 726.182 162.29C726.182 165.35 727.742 167.27 730.232 167.27ZM737.702 154.7V168.17C737.702 173.42 734.762 176.66 729.302 176.6C725.732 176.57 722.912 174.53 722.732 171.38H726.182C726.512 172.7 727.712 173.57 729.542 173.57C732.752 173.57 734.282 171.68 734.282 168.53V167.66C733.442 168.92 731.702 170.33 729.302 170.36C725.372 170.42 722.732 167.3 722.732 162.32C722.732 157.37 725.762 154.34 729.602 154.34C731.852 154.34 733.592 155.69 734.342 156.8L734.762 154.7H737.702ZM748.223 157.31C747.143 157.31 744.893 157.79 744.773 161.6V170H741.233V154.7H744.413L744.713 157.01C745.403 155.69 747.233 154.34 749.213 154.34C751.793 154.34 754.583 155.54 754.583 159.92V170H751.043V160.22C751.043 158.06 749.693 157.31 748.223 157.31ZM773.334 147.8C777.714 147.8 780.984 149.9 782.244 152.54L779.154 154.7C779.154 154.7 777.654 151.19 773.334 151.19C770.334 151.19 769.014 152.42 769.014 153.95C769.014 155.21 769.854 156.05 772.344 156.74C773.874 157.16 775.404 157.52 777.084 157.85C779.904 158.39 782.784 160.01 782.784 163.73C782.784 167.78 779.064 170.54 774.174 170.54C770.754 170.54 765.654 169.28 764.364 164.12L767.784 162.83C768.234 163.85 769.464 166.97 774.234 166.97C777.444 166.97 778.644 165.47 778.644 164.18C778.644 162.74 777.684 161.87 775.914 161.51C773.844 161.09 772.344 160.76 770.694 160.31C767.904 159.56 764.994 157.76 764.994 154.16C764.994 149.99 769.074 147.8 773.334 147.8ZM789.062 170.69L789.512 169.37L784.172 154.7H787.832L791.342 165.29L794.762 154.7H798.302C798.302 154.7 794.282 166.31 792.302 171.53C791.462 173.78 790.232 175.37 787.622 175.37C786.182 175.37 785.192 174.95 784.622 174.44L785.912 171.89C786.302 172.13 786.692 172.31 787.292 172.31C788.072 172.31 788.702 171.71 789.062 170.69ZM808.941 165.65C808.941 164.9 808.431 164.48 807.261 164.24C806.211 164.03 805.101 163.79 803.991 163.52C801.651 162.98 799.701 161.57 799.701 159.11C799.701 156.17 802.161 154.4 805.701 154.4C808.791 154.4 810.951 155.81 812.001 157.22L809.991 159.41C809.331 158.54 807.861 157.22 805.641 157.22C803.931 157.22 803.031 157.91 803.031 158.96C803.031 159.65 803.601 160.13 805.131 160.46C806.091 160.67 807.261 160.94 808.311 161.15C810.561 161.6 812.361 162.95 812.361 165.44C812.361 168.47 809.571 170.3 806.151 170.3C802.641 170.3 799.761 168.38 799.131 166.43L801.471 164.66C802.101 165.62 803.361 167.39 806.181 167.39C808.011 167.39 808.941 166.64 808.941 165.65ZM823.038 167.03L822.558 169.82C821.928 170.12 821.238 170.33 820.098 170.36C817.848 170.42 816.408 168.77 816.408 166.28V157.61H813.678V154.7H816.438V151.91L819.828 148.85V154.7H822.888V157.61H819.858V165.71C819.858 166.88 820.668 167.57 821.838 167.3L823.038 167.03ZM836.434 164.42L839.344 165.47C838.414 168.5 835.864 170.36 832.504 170.36C828.424 170.36 825.154 167.45 825.154 162.26C825.154 157.73 827.764 154.34 832.384 154.34C836.704 154.34 839.284 157.7 839.284 162.2C839.284 162.5 839.254 162.95 839.254 162.95L838.174 163.01H828.664C828.604 165.56 830.194 167.42 832.504 167.42C834.394 167.42 835.954 166.22 836.434 164.42ZM832.294 157.1C830.284 157.1 828.934 158.48 828.814 160.31H835.624C835.564 158.42 834.124 157.1 832.294 157.1ZM849.179 157.22C847.949 157.22 845.879 157.7 845.759 161.63V170H842.219V154.7H845.339L845.669 157.16C846.329 155.81 848.039 154.34 850.049 154.34C852.029 154.34 853.889 155.36 854.849 157.37C855.629 155.87 857.339 154.34 859.649 154.34C862.409 154.34 865.079 155.69 865.079 160.16V170H861.569V160.34C861.569 158.18 860.459 157.22 858.749 157.22C857.399 157.22 855.539 157.85 855.449 161.69V170H852.029V160.43C852.029 158.27 850.979 157.22 849.179 157.22Z"
    fill="white" />
  <rect
    x="568.53"
    y="238.252"
    width="391.093"
    height="243.496"
    rx="121.748"
    fill="#37363A"
    stroke="white"
    stroke-width="2.24766" />
  <path
    d="M532.941 360L521.703 353.512V366.488L532.941 360ZM450.527 361.124H522.827V358.876H450.527V361.124Z"
    fill="#E8E8E8" />
  <circle
    cx="694.773"
    cy="360"
    r="73.6294"
    fill="#29282A"
    stroke="white"
    stroke-width="2.58517" />
  <path
    d="M667.153 348.963L669.085 349.906C668.05 352.804 665.474 354.46 662.277 354.46C657.677 354.46 654.71 351.102 654.71 345.743C654.71 340.407 657.654 336.934 662.438 336.934C665.52 336.934 667.751 338.613 668.786 341.35L666.808 342.592C666.302 340.453 664.508 338.912 662.369 338.912C658.988 338.912 657.079 341.488 657.079 345.72C657.079 349.791 658.965 352.436 662.323 352.436C664.554 352.436 666.118 351.217 667.153 348.963ZM670.809 348.112C670.809 344.57 673.017 342.04 676.168 342.04C679.25 342.04 681.573 344.271 681.573 348.066C681.573 351.884 679.342 354.276 676.168 354.276C673.017 354.276 670.809 351.907 670.809 348.112ZM672.856 348.089C672.856 350.78 674.029 352.505 676.168 352.505C678.353 352.505 679.526 350.826 679.526 348.089C679.526 345.444 678.284 343.742 676.168 343.742C673.983 343.742 672.856 345.674 672.856 348.089ZM689.321 343.765C688.355 343.765 686.285 344.409 686.17 347.537V354H684.1V342.316H685.779L686.124 344.294C686.975 342.937 688.378 342.04 689.988 342.04C691.874 342.04 694.013 343.121 694.013 346.295V354H691.897V346.433C691.897 344.455 690.839 343.765 689.321 343.765ZM702.632 352.344L702.264 353.954C701.758 354.138 701.252 354.276 700.493 354.276C698.952 354.276 697.871 353.126 697.871 351.286V343.995H695.548V342.316H697.917V340.016L699.918 337.67V342.316H702.517V343.995H699.941V351.01C699.941 352.206 700.677 352.781 701.988 352.505L702.632 352.344ZM712.791 350.251L714.493 350.918C713.665 352.988 711.802 354.276 709.479 354.276C706.328 354.276 704.074 351.999 704.074 348.089C704.074 344.616 706.075 342.04 709.525 342.04C712.791 342.04 714.585 344.823 714.424 347.882L714.401 348.319L713.596 348.434H706.098C706.052 350.849 707.34 352.528 709.525 352.528C711.02 352.528 712.308 351.608 712.791 350.251ZM709.41 343.696C707.616 343.696 706.213 345.007 706.213 346.87H712.423C712.515 345.053 711.112 343.696 709.41 343.696ZM722.159 343.765C721.193 343.765 719.123 344.409 719.008 347.537V354H716.938V342.316H718.617L718.962 344.294C719.813 342.937 721.216 342.04 722.826 342.04C724.712 342.04 726.851 343.121 726.851 346.295V354H724.735V346.433C724.735 344.455 723.677 343.765 722.159 343.765ZM735.47 352.344L735.102 353.954C734.596 354.138 734.09 354.276 733.331 354.276C731.79 354.276 730.709 353.126 730.709 351.286V343.995H728.386V342.316H730.755V340.016L732.756 337.67V342.316H735.355V343.995H732.779V351.01C732.779 352.206 733.515 352.781 734.826 352.505L735.47 352.344ZM660.435 373.674C660.435 379.194 657.353 382 652.615 382H646.865V365.394H653.282C657.514 365.394 660.435 367.993 660.435 373.674ZM658.112 373.674C658.112 369.787 656.617 367.372 653.397 367.372H649.234V379.907H653.029C656.571 379.907 658.112 377.446 658.112 373.674ZM671.216 378.251L672.918 378.918C672.09 380.988 670.227 382.276 667.904 382.276C664.753 382.276 662.499 379.999 662.499 376.089C662.499 372.616 664.5 370.04 667.95 370.04C671.216 370.04 673.01 372.823 672.849 375.882L672.826 376.319L672.021 376.434H664.523C664.477 378.849 665.765 380.528 667.95 380.528C669.445 380.528 670.733 379.608 671.216 378.251ZM667.835 371.696C666.041 371.696 664.638 373.007 664.638 374.87H670.848C670.94 373.053 669.537 371.696 667.835 371.696ZM684.499 367.694L682.268 368.292C682.13 367.211 681.118 366.866 680.359 366.866C678.979 366.866 678.289 367.694 678.289 368.683V370.316H680.589V371.995H678.312V382H676.219V371.995H674.103V370.316H676.219V368.959C676.219 366.314 678.335 365.095 680.52 365.095C681.486 365.095 683.533 365.279 684.499 367.694ZM682.383 382V370.316H684.407V382H682.383ZM693.049 371.765C692.083 371.765 690.013 372.409 689.898 375.537V382H687.828V370.316H689.507L689.852 372.294C690.703 370.937 692.106 370.04 693.716 370.04C695.602 370.04 697.741 371.121 697.741 374.295V382H695.625V374.433C695.625 372.455 694.567 371.765 693.049 371.765ZM701.175 382V370.316H703.268V382H701.175ZM701.083 368.062V365.785H703.36V368.062H701.083ZM712.537 380.344L712.169 381.954C711.663 382.138 711.157 382.276 710.398 382.276C708.857 382.276 707.776 381.126 707.776 379.286V371.995H705.453V370.316H707.822V368.016L709.823 365.67V370.316H712.422V371.995H709.846V379.01C709.846 380.206 710.582 380.781 711.893 380.505L712.537 380.344ZM714.876 382V370.316H716.969V382H714.876ZM714.784 368.062V365.785H717.061V368.062H714.784ZM719.707 376.112C719.707 372.57 721.915 370.04 725.066 370.04C728.148 370.04 730.471 372.271 730.471 376.066C730.471 379.884 728.24 382.276 725.066 382.276C721.915 382.276 719.707 379.907 719.707 376.112ZM721.754 376.089C721.754 378.78 722.927 380.505 725.066 380.505C727.251 380.505 728.424 378.826 728.424 376.089C728.424 373.444 727.182 371.742 725.066 371.742C722.881 371.742 721.754 373.674 721.754 376.089ZM738.218 371.765C737.252 371.765 735.182 372.409 735.067 375.537V382H732.997V370.316H734.676L735.021 372.294C735.872 370.937 737.275 370.04 738.885 370.04C740.771 370.04 742.91 371.121 742.91 374.295V382H740.794V374.433C740.794 372.455 739.736 371.765 738.218 371.765Z"
    fill="white" />
  <path
    d="M255.48 351.5H252.51L241.53 331.25L241.56 351.5H239.7V329.84H242.88L253.65 349.7V329.84H255.48V351.5ZM270.902 346.55L272.432 347.51C271.382 350 269.462 351.89 266.342 351.89C262.202 351.89 259.562 348.47 259.562 343.82C259.562 339.35 262.352 336.23 266.252 336.23C270.302 336.23 272.612 339.59 272.252 343.76L270.812 344.06H261.332C261.302 347.69 263.282 350.36 266.342 350.36C268.892 350.36 270.422 348.56 270.902 346.55ZM266.252 337.7C263.582 337.7 261.632 339.68 261.332 342.62L270.602 342.56C270.632 339.62 268.862 337.7 266.252 337.7ZM286.488 346.55L288.018 347.51C286.968 350 285.048 351.89 281.928 351.89C277.788 351.89 275.148 348.47 275.148 343.82C275.148 339.35 277.938 336.23 281.838 336.23C285.888 336.23 288.198 339.59 287.838 343.76L286.398 344.06H276.918C276.888 347.69 278.868 350.36 281.928 350.36C284.478 350.36 286.008 348.56 286.488 346.55ZM281.838 337.7C279.168 337.7 277.218 339.68 276.918 342.62L286.188 342.56C286.218 339.62 284.448 337.7 281.838 337.7ZM302.734 351.5L302.254 348.38C301.594 350.21 299.674 351.89 297.214 351.89C293.344 351.89 290.704 348.71 290.704 344.03C290.704 339.14 293.404 336.23 296.944 336.23C299.224 336.23 301.204 337.55 302.134 339.65V329.84H303.874V351.5H302.734ZM297.364 350.39C300.004 350.39 302.164 347.84 302.164 344.03C302.164 340.22 299.884 337.79 297.274 337.79C294.244 337.79 292.474 340.19 292.474 344.03C292.474 347.81 294.334 350.39 297.364 350.39ZM321.83 329.84L321.35 331.22C321.05 331.07 320.39 330.95 320.06 330.95C318.71 330.95 317.96 331.7 317.96 333.14V336.62H321.53V338.21H317.96V351.5H316.22V338.21H313.16V336.62H316.22V333.02C316.22 330.26 317.9 329.45 319.58 329.45C320.36 329.45 321.35 329.63 321.83 329.84ZM323.487 344.12C323.487 339.26 326.367 336.23 330.237 336.23C334.167 336.23 337.017 339.35 337.017 344.12C337.017 348.77 334.047 351.86 330.237 351.86C326.367 351.86 323.487 348.68 323.487 344.12ZM325.257 344.12C325.257 347.66 327.027 350.36 330.237 350.36C333.267 350.36 335.247 347.87 335.247 344.12C335.247 340.22 333.297 337.73 330.237 337.73C327.147 337.73 325.257 340.22 325.257 344.12ZM341.757 336.62L342.057 340.4C342.867 338.39 344.577 336.26 346.737 336.26C347.427 336.26 348.027 336.47 348.477 336.74L347.667 338.96C347.307 338.66 346.647 338.36 346.017 338.33C343.977 338.24 342.387 340.1 342.387 343.94V351.5H340.617V336.62H341.757ZM358.763 343.55V351.5H357.023V336.62H358.163L358.583 340.07C359.633 337.73 361.493 336.26 364.253 336.26C366.893 336.26 369.233 338.03 369.233 341.72V351.5H367.493V341.84C367.493 339.11 366.053 337.7 363.743 337.7C361.883 337.7 359.003 339.38 358.763 343.55ZM384.046 346.55L385.576 347.51C384.526 350 382.606 351.89 379.486 351.89C375.346 351.89 372.706 348.47 372.706 343.82C372.706 339.35 375.496 336.23 379.396 336.23C383.446 336.23 385.756 339.59 385.396 343.76L383.956 344.06H374.476C374.446 347.69 376.426 350.36 379.486 350.36C382.036 350.36 383.566 348.56 384.046 346.55ZM379.396 337.7C376.726 337.7 374.776 339.68 374.476 342.62L383.746 342.56C383.776 339.62 382.006 337.7 379.396 337.7ZM401.529 351.5L397.779 338.21L394.059 351.5H391.959L387.519 336.62H389.349L393.039 349.76L396.639 336.62H398.979L402.579 349.76L406.239 336.62H408.069L403.689 351.5H401.529ZM245.52 370.67C243.9 370.67 241.14 372.26 240.99 376.61V384.5H239.25V369.62H240.39L240.72 373.1C241.62 370.7 243.39 369.26 246.12 369.26C248.22 369.26 250.08 370.34 250.68 372.8C251.85 370.73 253.17 369.26 256.26 369.26C258.78 369.26 261.09 370.76 261.09 374.87V384.5H259.35V374.9C259.35 372.02 258.18 370.67 255.72 370.67C253.65 370.67 251.4 372.44 251.19 376.28V384.5H249.45V375.17C249.45 372.26 248.04 370.67 245.52 370.67ZM265.741 384.5V369.62H267.481V384.5H265.741ZM265.501 366.38V363.29H267.691V366.38H265.501ZM282.678 379.91L283.968 381.11C282.768 383.33 280.968 384.89 278.178 384.89C274.008 384.89 271.338 381.62 271.338 377.12C271.338 372.68 273.888 369.23 278.118 369.23C280.908 369.23 282.858 370.85 283.878 373.28L282.318 374.15C281.688 372.35 280.398 370.76 278.088 370.76C274.758 370.76 273.138 373.55 273.138 377.09C273.138 380.78 274.968 383.33 278.208 383.33C280.338 383.33 281.988 381.65 282.678 379.91ZM288.554 369.62L288.854 373.4C289.664 371.39 291.374 369.26 293.534 369.26C294.224 369.26 294.824 369.47 295.274 369.74L294.464 371.96C294.104 371.66 293.444 371.36 292.814 371.33C290.774 371.24 289.184 373.1 289.184 376.94V384.5H287.414V369.62H288.554ZM296.621 377.12C296.621 372.26 299.501 369.23 303.371 369.23C307.301 369.23 310.151 372.35 310.151 377.12C310.151 381.77 307.181 384.86 303.371 384.86C299.501 384.86 296.621 381.68 296.621 377.12ZM298.391 377.12C298.391 380.66 300.161 383.36 303.371 383.36C306.401 383.36 308.381 380.87 308.381 377.12C308.381 373.22 306.431 370.73 303.371 370.73C300.281 370.73 298.391 373.22 298.391 377.12ZM322.422 380.63C322.422 379.34 321.402 378.53 319.812 378.11C318.762 377.84 317.742 377.57 316.812 377.27C314.712 376.58 313.242 375.32 313.242 373.31C313.242 370.97 315.162 369.29 318.222 369.29C320.682 369.29 322.542 370.64 323.712 372.05L322.452 373.49C321.582 371.9 320.052 370.76 318.192 370.76C316.062 370.76 314.922 371.81 314.922 373.25C314.922 374.36 315.702 375.14 317.322 375.65C318.252 375.95 319.212 376.19 320.262 376.46C322.332 377 324.102 378.26 324.102 380.48C324.102 383.15 321.882 384.86 318.732 384.86C315.642 384.86 313.422 382.91 312.462 381.17L313.872 379.79C314.502 381.38 316.272 383.3 318.762 383.3C321.102 383.3 322.422 382.28 322.422 380.63ZM327.792 384.5V369.62H329.532V384.5H327.792ZM327.552 366.38V363.29H329.742V366.38H327.552ZM341.849 382.76L341.459 384.32C340.949 384.59 340.079 384.86 339.299 384.86C337.409 384.86 336.059 383.63 336.059 381.23V371.21H332.639V369.62H336.029V366.47C336.509 365.78 337.409 364.28 337.799 363.5V369.62H341.789V371.21H337.799V381.05C337.799 383.09 339.569 383.72 341.849 382.76ZM355.482 379.55L357.012 380.51C355.962 383 354.042 384.89 350.922 384.89C346.782 384.89 344.142 381.47 344.142 376.82C344.142 372.35 346.932 369.23 350.832 369.23C354.882 369.23 357.192 372.59 356.832 376.76L355.392 377.06H345.912C345.882 380.69 347.862 383.36 350.922 383.36C353.472 383.36 355.002 381.56 355.482 379.55ZM350.832 370.7C348.162 370.7 346.212 372.68 345.912 375.62L355.182 375.56C355.212 372.62 353.442 370.7 350.832 370.7Z"
    fill="white" />
  <path
    d="M1084.77 351.5L1077.66 331.4L1077.69 351.5H1075.83V329.84H1079.07L1086.06 349.7L1093.05 329.84H1096.29V351.5H1094.43L1094.46 331.4L1087.35 351.5H1084.77ZM1101.55 351.5V336.62H1103.29V351.5H1101.55ZM1101.31 333.38V330.29H1103.5V333.38H1101.31ZM1118.49 346.91L1119.78 348.11C1118.58 350.33 1116.78 351.89 1113.99 351.89C1109.82 351.89 1107.15 348.62 1107.15 344.12C1107.15 339.68 1109.7 336.23 1113.93 336.23C1116.72 336.23 1118.67 337.85 1119.69 340.28L1118.13 341.15C1117.5 339.35 1116.21 337.76 1113.9 337.76C1110.57 337.76 1108.95 340.55 1108.95 344.09C1108.95 347.78 1110.78 350.33 1114.02 350.33C1116.15 350.33 1117.8 348.65 1118.49 346.91ZM1124.36 336.62L1124.66 340.4C1125.47 338.39 1127.18 336.26 1129.34 336.26C1130.03 336.26 1130.63 336.47 1131.08 336.74L1130.27 338.96C1129.91 338.66 1129.25 338.36 1128.62 338.33C1126.58 338.24 1124.99 340.1 1124.99 343.94V351.5H1123.22V336.62H1124.36ZM1132.43 344.12C1132.43 339.26 1135.31 336.23 1139.18 336.23C1143.11 336.23 1145.96 339.35 1145.96 344.12C1145.96 348.77 1142.99 351.86 1139.18 351.86C1135.31 351.86 1132.43 348.68 1132.43 344.12ZM1134.2 344.12C1134.2 347.66 1135.97 350.36 1139.18 350.36C1142.21 350.36 1144.19 347.87 1144.19 344.12C1144.19 340.22 1142.24 337.73 1139.18 337.73C1136.09 337.73 1134.2 340.22 1134.2 344.12ZM1158.23 347.63C1158.23 346.34 1157.21 345.53 1155.62 345.11C1154.57 344.84 1153.55 344.57 1152.62 344.27C1150.52 343.58 1149.05 342.32 1149.05 340.31C1149.05 337.97 1150.97 336.29 1154.03 336.29C1156.49 336.29 1158.35 337.64 1159.52 339.05L1158.26 340.49C1157.39 338.9 1155.86 337.76 1154 337.76C1151.87 337.76 1150.73 338.81 1150.73 340.25C1150.73 341.36 1151.51 342.14 1153.13 342.65C1154.06 342.95 1155.02 343.19 1156.07 343.46C1158.14 344 1159.91 345.26 1159.91 347.48C1159.91 350.15 1157.69 351.86 1154.54 351.86C1151.45 351.86 1149.23 349.91 1148.27 348.17L1149.68 346.79C1150.31 348.38 1152.08 350.3 1154.57 350.3C1156.91 350.3 1158.23 349.28 1158.23 347.63ZM1163.6 351.5V336.62H1165.34V351.5H1163.6ZM1163.36 333.38V330.29H1165.55V333.38H1163.36ZM1177.66 349.76L1177.27 351.32C1176.76 351.59 1175.89 351.86 1175.11 351.86C1173.22 351.86 1171.87 350.63 1171.87 348.23V338.21H1168.45V336.62H1171.84V333.47C1172.32 332.78 1173.22 331.28 1173.61 330.5V336.62H1177.6V338.21H1173.61V348.05C1173.61 350.09 1175.38 350.72 1177.66 349.76ZM1191.29 346.55L1192.82 347.51C1191.77 350 1189.85 351.89 1186.73 351.89C1182.59 351.89 1179.95 348.47 1179.95 343.82C1179.95 339.35 1182.74 336.23 1186.64 336.23C1190.69 336.23 1193 339.59 1192.64 343.76L1191.2 344.06H1181.72C1181.69 347.69 1183.67 350.36 1186.73 350.36C1189.28 350.36 1190.81 348.56 1191.29 346.55ZM1186.64 337.7C1183.97 337.7 1182.02 339.68 1181.72 342.62L1190.99 342.56C1191.02 339.62 1189.25 337.7 1186.64 337.7ZM1075.38 384.5V362.84H1077.12V384.5H1075.38ZM1091.13 375.26V374.3C1091.13 372.11 1089.9 370.67 1087.17 370.67C1084.8 370.67 1083.18 372.35 1082.49 373.97L1081.05 372.92C1082.19 371.06 1084.08 369.23 1087.23 369.23C1090.89 369.23 1092.84 371.24 1092.84 374.27V381.35C1092.84 382.97 1094.01 383.3 1095.27 382.82L1094.94 384.32C1092.21 385.31 1090.89 383.24 1091.85 380.24C1090.92 382.67 1088.61 384.86 1085.43 384.86C1082.76 384.86 1080.87 383.18 1080.87 380.6C1080.87 377.63 1083.6 376.07 1086.93 375.71C1088.22 375.56 1089.81 375.38 1091.13 375.26ZM1087.08 377.12C1084.41 377.51 1082.64 378.56 1082.64 380.63C1082.64 382.31 1083.75 383.36 1085.64 383.36C1088.37 383.36 1091.13 381.02 1091.13 377.96V376.61C1089.75 376.76 1088.34 376.94 1087.08 377.12ZM1108.29 377.57V369.62H1110.03V384.5H1108.89L1108.47 381.05C1107.42 383.39 1105.56 384.86 1102.8 384.86C1100.16 384.86 1097.82 383.09 1097.82 379.4V369.62H1099.56V379.28C1099.56 382.01 1101 383.42 1103.31 383.42C1105.17 383.42 1108.05 381.74 1108.29 377.57ZM1116.26 376.55V384.5H1114.52V369.62H1115.66L1116.08 373.07C1117.13 370.73 1118.99 369.26 1121.75 369.26C1124.39 369.26 1126.73 371.03 1126.73 374.72V384.5H1124.99V374.84C1124.99 372.11 1123.55 370.7 1121.24 370.7C1119.38 370.7 1116.5 372.38 1116.26 376.55ZM1141.52 379.91L1142.81 381.11C1141.61 383.33 1139.81 384.89 1137.02 384.89C1132.85 384.89 1130.18 381.62 1130.18 377.12C1130.18 372.68 1132.73 369.23 1136.96 369.23C1139.75 369.23 1141.7 370.85 1142.72 373.28L1141.16 374.15C1140.53 372.35 1139.24 370.76 1136.93 370.76C1133.6 370.76 1131.98 373.55 1131.98 377.09C1131.98 380.78 1133.81 383.33 1137.05 383.33C1139.18 383.33 1140.83 381.65 1141.52 379.91ZM1152.97 370.7C1151.11 370.7 1148.23 372.38 1147.99 376.55V384.5H1146.25V362.84H1147.99V372.65C1149.1 370.55 1150.75 369.26 1153.48 369.26C1156.12 369.26 1158.46 371.03 1158.46 374.72V384.5H1156.72V374.84C1156.72 372.11 1155.28 370.7 1152.97 370.7ZM1173.27 379.55L1174.8 380.51C1173.75 383 1171.83 384.89 1168.71 384.89C1164.57 384.89 1161.93 381.47 1161.93 376.82C1161.93 372.35 1164.72 369.23 1168.62 369.23C1172.67 369.23 1174.98 372.59 1174.62 376.76L1173.18 377.06H1163.7C1163.67 380.69 1165.65 383.36 1168.71 383.36C1171.26 383.36 1172.79 381.56 1173.27 379.55ZM1168.62 370.7C1165.95 370.7 1164 372.68 1163.7 375.62L1172.97 375.56C1173 372.62 1171.23 370.7 1168.62 370.7ZM1189.52 384.5L1189.04 381.38C1188.38 383.21 1186.46 384.89 1184 384.89C1180.13 384.89 1177.49 381.71 1177.49 377.03C1177.49 372.14 1180.19 369.23 1183.73 369.23C1186.01 369.23 1187.99 370.55 1188.92 372.65V362.84H1190.66V384.5H1189.52ZM1184.15 383.39C1186.79 383.39 1188.95 380.84 1188.95 377.03C1188.95 373.22 1186.67 370.79 1184.06 370.79C1181.03 370.79 1179.26 373.19 1179.26 377.03C1179.26 380.81 1181.12 383.39 1184.15 383.39Z"
    fill="white" />
  <path
    d="M1043.16 360L1030.23 352.537V367.463L1043.16 360ZM960.746 361.293H1031.53V358.707H960.746V361.293Z"
    fill="#E4E4E5" />
  <circle
    cx="834.879"
    cy="360"
    r="73.6294"
    fill="#29282A"
    stroke="white"
    stroke-width="2.58517" />
  <path
    d="M814.024 359.04C814.024 364.56 810.942 367.366 806.204 367.366H800.454V350.76H806.871C811.103 350.76 814.024 353.359 814.024 359.04ZM811.701 359.04C811.701 355.153 810.206 352.738 806.986 352.738H802.823V365.273H806.618C810.16 365.273 811.701 362.812 811.701 359.04ZM824.805 363.617L826.507 364.284C825.679 366.354 823.816 367.642 821.493 367.642C818.342 367.642 816.088 365.365 816.088 361.455C816.088 357.982 818.089 355.406 821.539 355.406C824.805 355.406 826.599 358.189 826.438 361.248L826.415 361.685L825.61 361.8H818.112C818.066 364.215 819.354 365.894 821.539 365.894C823.034 365.894 824.322 364.974 824.805 363.617ZM821.424 357.062C819.63 357.062 818.227 358.373 818.227 360.236H824.437C824.529 358.419 823.126 357.062 821.424 357.062ZM835.829 364.261C835.829 363.456 835.346 362.973 834.127 362.72C833.276 362.536 832.517 362.352 831.689 362.122C829.964 361.639 828.63 360.696 828.63 358.879C828.63 356.763 830.47 355.406 833.046 355.406C835.208 355.406 836.726 356.556 837.623 357.591L836.381 359.063C835.99 358.442 834.61 357.062 832.977 357.062C831.482 357.062 830.562 357.729 830.562 358.764C830.562 359.5 831.16 359.937 832.333 360.236C833.207 360.466 833.897 360.65 834.748 360.834C836.473 361.202 837.784 362.191 837.784 364.077C837.784 366.239 835.737 367.642 833.115 367.642C830.631 367.642 828.722 366.262 828.032 364.882L829.504 363.663C829.826 364.33 831.229 365.917 833.23 365.917C835.024 365.917 835.829 365.158 835.829 364.261ZM840.412 367.366V355.682H842.505V367.366H840.412ZM840.32 353.428V351.151H842.597V353.428H840.32ZM850.854 365.825C852.556 365.825 854.235 364.445 854.258 361.823V361.087C854.212 358.902 852.855 357.154 850.854 357.154C848.715 357.154 847.289 358.833 847.289 361.478C847.289 364.123 848.715 365.825 850.854 365.825ZM856.397 355.682V366.17C856.397 370.149 854.258 372.748 850.141 372.702C847.634 372.679 845.633 371.184 845.265 369.045H847.427C847.68 370.103 848.715 370.931 850.302 370.931C853.108 370.931 854.35 369.206 854.35 366.469V365.526C853.545 366.607 852.326 367.642 850.348 367.642C847.45 367.642 845.242 365.342 845.242 361.501C845.242 357.683 847.657 355.406 850.555 355.406C852.464 355.406 853.637 356.349 854.419 357.453L854.718 355.682H856.397ZM864.832 357.131C863.866 357.131 861.796 357.775 861.681 360.903V367.366H859.611V355.682H861.29L861.635 357.66C862.486 356.303 863.889 355.406 865.499 355.406C867.385 355.406 869.524 356.487 869.524 359.661V367.366H867.408V359.799C867.408 357.821 866.35 357.131 864.832 357.131Z"
    fill="white" />
  <path
    d="M767.413 455.994L767.423 456.444L767.413 455.994ZM753.64 452.144L753.398 452.523L753.64 452.144ZM744.418 440.841C744.175 440.79 743.936 440.945 743.884 441.187L743.044 445.145C742.993 445.388 743.148 445.627 743.391 445.678C743.634 445.73 743.872 445.575 743.924 445.332L744.671 441.814L748.189 442.561C748.431 442.612 748.67 442.457 748.722 442.214C748.773 441.971 748.618 441.733 748.375 441.681L744.418 440.841ZM743.947 441.526C744.611 442.548 745.263 443.565 745.925 444.551L746.672 444.05C746.015 443.071 745.369 442.064 744.701 441.036L743.947 441.526ZM750.501 450.237C751.378 451.075 752.333 451.844 753.398 452.523L753.881 451.765C752.871 451.121 751.962 450.39 751.122 449.587L750.501 450.237ZM753.398 452.523C754.441 453.188 755.528 453.772 756.648 454.272L757.014 453.451C755.934 452.969 754.887 452.406 753.881 451.765L753.398 452.523ZM763.737 456.254C764.954 456.407 766.186 456.471 767.423 456.444L767.403 455.545C766.21 455.571 765.023 455.509 763.849 455.362L763.737 456.254ZM767.423 456.444C768.659 456.416 769.887 456.297 771.096 456.09L770.944 455.204C769.778 455.403 768.595 455.518 767.403 455.545L767.423 456.444ZM778.09 453.794C779.187 453.244 780.246 452.612 781.259 451.902L780.743 451.166C779.766 451.851 778.745 452.46 777.687 452.99L778.09 453.794ZM781.259 451.902C782.272 451.191 783.227 450.409 784.117 449.564L783.499 448.912C782.64 449.727 781.719 450.481 780.743 451.166L781.259 451.902ZM788.658 443.765C789.265 442.698 789.796 441.583 790.243 440.429L789.405 440.104C788.973 441.217 788.462 442.291 787.877 443.32L788.658 443.765ZM767.413 455.994L767.433 456.893L767.413 455.994ZM753.64 452.144L753.156 452.902L753.64 452.144ZM744.511 440.401C744.025 440.298 743.548 440.608 743.445 441.094L741.765 449.009C741.662 449.495 741.972 449.972 742.458 450.076C742.943 450.179 743.421 449.868 743.524 449.383L745.017 442.347L752.053 443.84C752.539 443.943 753.016 443.633 753.119 443.147C753.222 442.662 752.912 442.184 752.426 442.081L744.511 440.401ZM743.57 441.771C744.232 442.789 744.888 443.812 745.552 444.802L747.045 443.8C746.391 442.824 745.748 441.822 745.078 440.791L743.57 441.771ZM750.191 450.562C751.086 451.418 752.064 452.206 753.156 452.902L754.123 451.386C753.14 450.759 752.253 450.047 751.433 449.262L750.191 450.562ZM753.156 452.902C754.218 453.579 755.324 454.173 756.464 454.682L757.198 453.04C756.138 452.567 755.11 452.015 754.123 451.386L753.156 452.902ZM763.681 456.7C764.92 456.856 766.174 456.921 767.433 456.893L767.393 455.095C766.222 455.121 765.057 455.061 763.905 454.916L763.681 456.7ZM767.433 456.893C768.691 456.865 769.941 456.744 771.172 456.533L770.868 454.76C769.724 454.957 768.563 455.069 767.393 455.095L767.433 456.893ZM778.292 454.196C779.408 453.636 780.486 452.993 781.517 452.27L780.484 450.798C779.526 451.47 778.524 452.068 777.486 452.588L778.292 454.196ZM781.517 452.27C782.548 451.546 783.52 450.75 784.427 449.89L783.189 448.586C782.346 449.385 781.443 450.125 780.484 450.798L781.517 452.27ZM789.049 443.987C789.667 442.901 790.207 441.766 790.662 440.592L788.986 439.941C788.562 441.034 788.06 442.088 787.486 443.098L789.049 443.987Z"
    fill="white" />
  <path
    d="M763.365 264.139L763.355 263.69L763.365 264.139ZM777.138 267.989L777.379 267.61L777.138 267.989ZM786.36 279.292C786.603 279.344 786.841 279.189 786.893 278.946L787.733 274.988C787.784 274.745 787.629 274.507 787.386 274.455C787.144 274.404 786.905 274.559 786.853 274.802L786.107 278.319L782.589 277.573C782.346 277.521 782.107 277.676 782.056 277.919C782.004 278.162 782.159 278.401 782.402 278.452L786.36 279.292ZM786.83 278.608C786.166 277.586 785.514 276.568 784.852 275.582L784.105 276.083C784.762 277.062 785.408 278.069 786.076 279.097L786.83 278.608ZM780.276 269.896C779.399 269.058 778.444 268.289 777.379 267.61L776.896 268.369C777.906 269.012 778.816 269.744 779.655 270.546L780.276 269.896ZM777.379 267.61C776.336 266.946 775.25 266.362 774.13 265.862L773.763 266.682C774.843 267.165 775.89 267.728 776.896 268.369L777.379 267.61ZM767.04 263.88C765.823 263.726 764.591 263.662 763.355 263.69L763.375 264.589C764.567 264.562 765.755 264.624 766.928 264.772L767.04 263.88ZM763.355 263.69C762.118 263.717 760.89 263.836 759.681 264.044L759.833 264.93C760.999 264.73 762.183 264.615 763.375 264.589L763.355 263.69ZM752.687 266.339C751.59 266.889 750.531 267.521 749.518 268.231L750.035 268.967C751.011 268.282 752.033 267.673 753.09 267.143L752.687 266.339ZM749.518 268.231C748.505 268.942 747.55 269.724 746.66 270.569L747.279 271.222C748.137 270.407 749.058 269.653 750.035 268.967L749.518 268.231ZM742.119 276.369C741.512 277.436 740.982 278.55 740.534 279.704L741.372 280.029C741.804 278.917 742.315 277.842 742.9 276.813L742.119 276.369ZM763.365 264.139L763.345 263.24L763.365 264.139ZM777.138 267.989L777.621 267.231L777.138 267.989ZM786.266 279.732C786.752 279.835 787.23 279.525 787.333 279.039L789.013 271.124C789.116 270.638 788.806 270.161 788.32 270.058C787.834 269.955 787.357 270.265 787.254 270.751L785.76 277.786L778.725 276.293C778.239 276.19 777.761 276.5 777.658 276.986C777.555 277.472 777.865 277.949 778.351 278.052L786.266 279.732ZM787.207 278.363C786.545 277.344 785.89 276.322 785.225 275.332L783.732 276.333C784.387 277.309 785.029 278.311 785.699 279.342L787.207 278.363ZM780.587 269.571C779.691 268.715 778.713 267.927 777.621 267.231L776.655 268.748C777.637 269.374 778.524 270.087 779.345 270.871L780.587 269.571ZM777.621 267.231C776.559 266.555 775.453 265.96 774.313 265.451L773.58 267.093C774.639 267.566 775.667 268.119 776.655 268.748L777.621 267.231ZM767.097 263.434C765.857 263.278 764.604 263.212 763.345 263.24L763.385 265.038C764.555 265.012 765.72 265.073 766.872 265.218L767.097 263.434ZM763.345 263.24C762.086 263.268 760.836 263.39 759.605 263.601L759.909 265.373C761.053 265.177 762.215 265.064 763.385 265.038L763.345 263.24ZM752.486 265.938C751.369 266.497 750.291 267.14 749.26 267.863L750.293 269.335C751.251 268.663 752.254 268.065 753.291 267.545L752.486 265.938ZM749.26 267.863C748.229 268.587 747.257 269.383 746.35 270.243L747.588 271.548C748.431 270.748 749.334 270.008 750.293 269.335L749.26 267.863ZM741.728 276.146C741.11 277.233 740.571 278.367 740.115 279.542L741.791 280.192C742.215 279.1 742.717 278.045 743.291 277.035L741.728 276.146Z"
    fill="white" />
  <path
    d="M53.62 81.96H46.51L45.01 87H40.84L48.04 65.34H52.36L59.35 87H55.06L53.62 81.96ZM47.62 78.39H52.6L50.17 69.84L47.62 78.39ZM70.0591 65.79L69.2191 68.55C68.7991 68.31 68.2891 68.01 67.8691 68.01C67.0891 68.01 66.6391 68.55 66.6391 69.39V71.7H69.4591V74.61H66.6391V87H63.0991V74.61H60.3391V71.7H63.0991V69.45C63.0991 65.82 65.1091 64.92 67.0291 64.92C68.5291 64.92 69.6391 65.49 70.0591 65.79ZM79.7186 84.03L79.2386 86.82C78.6086 87.12 77.9186 87.33 76.7786 87.36C74.5286 87.42 73.0886 85.77 73.0886 83.28V74.61H70.3586V71.7H73.1186V68.91L76.5086 65.85V71.7H79.5686V74.61H76.5386V82.71C76.5386 83.88 77.3486 84.57 78.5186 84.3L79.7186 84.03ZM93.1148 81.42L96.0248 82.47C95.0948 85.5 92.5448 87.36 89.1848 87.36C85.1048 87.36 81.8348 84.45 81.8348 79.26C81.8348 74.73 84.4448 71.34 89.0648 71.34C93.3848 71.34 95.9648 74.7 95.9648 79.2C95.9648 79.5 95.9348 79.95 95.9348 79.95L94.8548 80.01H85.3448C85.2848 82.56 86.8748 84.42 89.1848 84.42C91.0748 84.42 92.6348 83.22 93.1148 81.42ZM88.9748 74.1C86.9648 74.1 85.6148 75.48 85.4948 77.31H92.3048C92.2448 75.42 90.8048 74.1 88.9748 74.1ZM102.02 71.7L102.32 74.28C102.74 72.9 103.94 71.37 105.62 71.4C106.67 71.43 107.66 72.09 107.99 72.72L106.31 75.63C106.04 75.24 105.56 74.82 104.93 74.82C104.12 74.82 102.5 75.21 102.38 79.08V87H98.8996V71.7H102.02Z"
    fill="white" />
</svg>
